<?xml version="1.0"?>
<svg xmlns="http://www.w3.org/2000/svg" height="60pt" viewBox="0 -16 512 512" width="60pt"><path d="m176 128h-16c0-52.9375 43.066406-96 96-96v16c-44.113281 0-80 35.886719-80 80zm0 0" fill="#FFDA44"/><path d="m272 64h16v16h-16zm0 0" fill="#FFDA44"/><path d="m216 320h16v16h-16zm0 0" fill="#FFDA44"/><path d="m280 320h16v16h-16zm0 0" fill="#FFDA44"/><path d="m424 320h16v16h-16zm0 0" fill="#FFDA44"/><path d="m72 320h16v16h-16zm0 0" fill="#FFDA44"/><path d="m112 120c7.449219 0 15.128906.945312 22.835938 2.8125l8.859374 2.148438.976563-9.066407c6.136719-56.949219 53.996094-99.894531 111.328125-99.894531 31.8125 0 62.234375 13.605469 83.457031 37.332031l11.925781-10.667969c-24.257812-27.113281-59.023437-42.664062-95.382812-42.664062-62.582031 0-115.285156 44.773438-126.003906 105.507812-6.054688-1-12.082032-1.507812-17.996094-1.507812-21.214844 0-41.867188 5.960938-59.722656 17.234375l8.542968 13.53125c15.296876-9.660156 32.992188-14.765625 51.179688-14.765625zm0 0" fill="#FFDA44"/><path d="m272 32h16v16h-16zm0 0" fill="#FFDA44"/><path d="m432 256h16v16h-16zm0 0" fill="#FFDA44"/><path d="m448 240h16v16h-16zm0 0" fill="#FFDA44"/><path d="m432 216h16v16h-16zm0 0" fill="#FFDA44"/><path d="m248 320h16v16h-16zm0 0" fill="#FFDA44"/><path d="m485.804688 288c16.820312-20.019531 26.195312-45.375 26.195312-72 0-61.757812-50.242188-112-112-112-5.917969 0-11.941406.503906-17.996094 1.507812-2.578125-14.566406-7.628906-28.441406-15.070312-41.351562l-13.863282 7.988281c7.789063 13.511719 12.585938 28.230469 14.257813 43.75l.976563 9.066407 8.859374-2.148438c7.707032-1.867188 15.390626-2.8125 22.835938-2.8125 52.933594 0 96 43.0625 96 96 0 27.667969-11.800781 53.746094-32.480469 72h-90.832031l-20.6875 20.683594v3.316406h-16v-3.316406l-20.6875-20.683594h-35.3125v16h28.6875l11.3125 11.3125v25.371094l-11.3125 11.316406h-105.375l-11.3125-11.316406v-25.371094l11.3125-11.3125h52.6875v-16h-59.3125l-20.6875 20.683594v3.316406h-16v-3.316406l-20.683594-20.683594h-90.835937c-20.675781-18.253906-32.480469-44.332031-32.480469-72 0-24.902344 9.492188-48.503906 26.722656-66.460938l-11.542968-11.082031c-20.105469 20.953125-31.179688 48.492188-31.179688 77.542969 0 26.625 9.375 51.980469 26.195312 72h-5.507812l-20.6875 20.6875v150.625l20.6875 20.6875h118.625l20.6875-20.6875v-131.3125h16v131.3125l20.6875 20.6875h118.625l20.6875-20.6875v-131.3125h16v131.3125l20.683594 20.6875h118.628906l20.6875-20.6875v-150.625l-20.6875-20.6875zm-469.804688 27.3125 11.3125-11.3125h105.375l11.3125 11.3125v25.375l-11.3125 11.3125h-105.375l-11.3125-11.3125zm128 105.375-11.3125 11.3125h-105.375l-11.3125-11.3125v-17.375l4.6875 4.6875h118.625l4.6875-4.6875zm-11.3125 43.3125h-105.375l-11.3125-11.3125v-9.375l4.6875 4.6875h118.625l4.6875-4.6875v9.375zm11.3125-83.3125-11.3125 11.3125h-105.375l-11.3125-11.3125v-17.375l4.6875 4.6875h118.625l4.6875-4.6875zm176 40-11.3125 11.3125h-105.375l-11.3125-11.3125v-17.375l4.6875 4.6875h118.625l4.6875-4.6875zm-11.3125 43.3125h-105.375l-11.3125-11.3125v-9.375l4.6875 4.6875h118.625l4.6875-4.6875v9.375zm11.3125-83.3125-11.3125 11.3125h-105.375l-11.3125-11.3125v-17.375l4.6875 4.6875h118.625l4.6875-4.6875zm176 40-11.3125 11.3125h-105.375l-11.3125-11.3125v-17.375l4.6875 4.6875h118.625l4.6875-4.6875zm-11.3125 43.3125h-105.375l-11.3125-11.3125v-9.375l4.6875 4.6875h118.625l4.6875-4.6875v9.375zm11.3125-83.3125-11.3125 11.3125h-105.375l-11.3125-11.3125v-17.375l4.6875 4.6875h118.625l4.6875-4.6875zm0-40-11.3125 11.3125h-105.375l-11.3125-11.3125v-25.375l11.3125-11.3125h105.375l11.3125 11.3125zm0 0" fill="#FFDA44"/><path d="m392 320h16v16h-16zm0 0" fill="#FFDA44"/><path d="m456 320h16v16h-16zm0 0" fill="#FFDA44"/><path d="m40 320h16v16h-16zm0 0" fill="#FFDA44"/><path d="m104 320h16v16h-16zm0 0" fill="#FFDA44"/></svg>
