<svg height="60pt" viewBox="0 -8 480 480" width="60pt" xmlns="http://www.w3.org/2000/svg"><path d="m440 264h16v16h-16zm0 0"/><path d="m416 264h16v16h-16zm0 0"/><path d="m440 240h16v16h-16zm0 0"/><path d="m448 0h-416c-17.671875 0-32 14.328125-32 32v240c0 17.671875 14.328125 32 32 32h8v144c0 8.835938 7.164062 16 16 16h144c8.835938 0 16-7.164062 16-16v-144h232c17.671875 0 32-14.328125 32-32v-240c0-17.671875-14.328125-32-32-32zm-416 16h416c8.835938 0 16 7.164062 16 16v32h-448v-32c0-8.835938 7.164062-16 16-16zm24 432v-200h144v200zm392-160h-232v-40c0-8.835938-7.164062-16-16-16h-144c-8.835938 0-16 7.164062-16 16v40h-8c-8.835938 0-16-7.164062-16-16v-192h448v192c0 8.835938-7.164062 16-16 16zm0 0"/><path d="m32 32h16v16h-16zm0 0"/><path d="m56 32h16v16h-16zm0 0"/><path d="m80 32h16v16h-16zm0 0"/><path d="m371.558594 46.65625 24 16 8.882812-13.3125-14.042968-9.34375 14.015624-9.34375-8.878906-13.3125-24 16c-2.222656 1.484375-3.5625 3.980469-3.5625 6.65625s1.339844 5.171875 3.5625 6.65625zm0 0"/><path d="m428.441406 62.65625 24-16c2.222656-1.484375 3.558594-3.980469 3.558594-6.65625s-1.335938-5.171875-3.558594-6.65625l-24-16-8.882812 13.3125 14.042968 9.34375-14.015624 9.34375zm0 0"/><path d="m82.34375 90.34375-48 48c-3.121094 3.125-3.121094 8.1875 0 11.3125l48 48 11.3125-11.3125-42.34375-42.34375 42.34375-42.34375zm0 0"/><path d="m141.65625 90.34375-11.3125 11.3125 42.34375 42.34375-42.34375 42.34375 11.3125 11.3125 48-48c3.121094-3.125 3.121094-8.1875 0-11.3125zm0 0"/><path d="m240 88h80v16h-80zm0 0"/><path d="m240 112h40v16h-40zm0 0"/><path d="m240 136h88v16h-88zm0 0"/><path d="m336 136h40v16h-40zm0 0"/><path d="m240 256h88v16h-88zm0 0"/><path d="m336 256h40v16h-40zm0 0"/><path d="m288 112h40v16h-40zm0 0"/><path d="m240 160h88v16h-88zm0 0"/><path d="m336 160h64v16h-64zm0 0"/><path d="m240 232h88v16h-88zm0 0"/><path d="m336 232h64v16h-64zm0 0"/><path d="m240 184h88v16h-88zm0 0"/><path d="m336 184h64v16h-64zm0 0"/><path d="m240 208h64v16h-64zm0 0"/><path d="m408 184h40v16h-40zm0 0"/><path d="m312 208h40v16h-40zm0 0"/><path d="m136 328h24v-16h-48v-16h16v-16h-40v-24h-16v32c0 4.417969 3.582031 8 8 8h16v24c0 4.417969 3.582031 8 8 8h16v32c0 4.417969 3.582031 8 8 8h56v-16h-48zm0 0"/><path d="m112 400h16v-16h-40v-24h-16v32c0 4.417969 3.582031 8 8 8h16v24c0 4.417969 3.582031 8 8 8h80v-16h-72zm0 0"/></svg>